<!-- icon666.com - MILLIONS OF FREE VECTOR ICONS --><svg id="Line" enable-background="new 0 0 496 496" viewBox="0 0 496 496" xmlns="http://www.w3.org/2000/svg" xmlns:xlink="http://www.w3.org/1999/xlink"><linearGradient id="SVGID_1_" gradientUnits="userSpaceOnUse" x1="248" x2="248" y1="496" y2="0"><stop offset="0" stop-color="#9f2fff"></stop><stop offset="1" stop-color="#0bb1d3"></stop></linearGradient><path d="m112 40c0-4.418 3.582-8 8-8s8 3.582 8 8-3.582 8-8 8-8-3.582-8-8zm368.17 330.435c10.208 12.012 15.83 27.307 15.83 43.067 0 36.667-29.831 66.498-66.498 66.498h-46.879c-3.302 9.311-12.195 16-22.624 16h-47.029c-10.608 0-19.685-6.651-23.297-16h-49.673c-8.822 0-16-7.178-16-16 0-17.645 14.355-32 32-32h48v-3.155c0-4.325-.318-8.616-.944-12.845h-95.056c-5.329 0-10.68-.226-16-.631v56.631c0 13.233-10.767 24-24 24h-47.029c-13.769 0-24.971-11.202-24.971-24.971 0-6.67 2.598-12.94 7.314-17.657l6.059-6.059c1.694-1.694 2.627-3.946 2.627-6.343v-12.126c0-9.472-1.532-18.777-4.485-27.623-6.521 7.181-14.33 13.131-23.092 17.512-2.729 1.364-4.423 4.105-4.423 7.155v14.112c0 7.514-3.589 14.691-9.6 19.2l-20.688 15.516c-4.544 3.407-10.173 5.284-15.853 5.284-8.855 0-17.073-4.398-21.984-11.766l-2.308-3.462c-6.259-9.387-9.567-20.314-9.567-31.597 0-12.885 4.433-25.522 12.483-35.584l7.246-9.058c7.913-9.891 12.271-22.315 12.271-34.983v-34.661c-1.249-1.978-2.47-3.976-3.653-5.997-18.545-31.697-28.347-67.968-28.347-104.892v-29.608c0-29.859 5.794-58.986 17.221-86.573 11.426-27.586 27.925-52.279 49.039-73.393 11.883-11.883 27.68-18.426 44.481-18.426h.004c18.389.001 35.799 8.009 47.767 21.971l27.554 32.146c3.826 4.464 5.934 10.16 5.934 16.04v.294c0 14.088-11.444 25.549-25.512 25.549h-60.607c-3.346 0-6.607-.455-9.727-1.298-10.427 13.929-16.154 31.032-16.154 48.461 0 44.573 36.264 80.837 80.837 80.837h120.872c47.022 0 91.457 20.548 121.911 56.376zm-380.487 15.138c-19.58-11.97-37.06-27.106-51.683-44.688v12.664c0 16.287-5.603 32.261-15.777 44.979l-7.246 9.058c-5.789 7.235-8.977 16.323-8.977 25.589 0 8.114 2.379 15.972 6.879 22.723l2.308 3.462c1.938 2.906 5.179 4.641 8.672 4.641 2.24 0 4.461-.74 6.253-2.085l20.688-15.517c2.003-1.502 3.2-3.895 3.2-6.399v-14.111c0-9.149 5.084-17.375 13.268-21.466 8.884-4.444 16.544-10.907 22.415-18.85zm140.317 78.427h49.003c1.16-3.975 3.302-7.618 6.311-10.628l5.372-5.372h-44.686c-8.822 0-16 7.178-16 16zm144-32h40c4.411 0 8-3.589 8-8s-3.589-8-8-8h-40zm96-18.498c0-11.969-4.27-23.584-12.021-32.705l-76.55-90.058c-27.409-32.246-67.4-50.739-109.72-50.739h-120.872c-53.396 0-96.837-43.441-96.837-96.837 0-20.037 6.323-39.711 17.872-56.015-3.673-3.151-6.765-7.047-9.027-11.57l14.311-7.155c3.57 7.14 10.745 11.577 18.725 11.577h60.607c5.244 0 9.511-4.284 9.511-9.549v-.294c0-2.063-.739-4.061-2.082-5.627l-27.555-32.146c-8.922-10.411-21.905-16.383-35.618-16.384-.001 0-.002 0-.003 0-12.528 0-24.306 4.878-33.165 13.737-39.709 39.709-61.576 92.502-61.576 148.655v29.608c0 57.251 25.923 111.416 69.226 147.591-3.44-10.393-5.226-21.317-5.226-32.436v-3.155h16v3.155c0 17.285 5.068 34.024 14.656 48.407 11.347 17.02 17.344 36.829 17.344 57.283v12.126c0 6.67-2.598 12.94-7.314 17.657l-6.059 6.059c-1.694 1.694-2.627 3.946-2.627 6.343 0 4.946 4.024 8.971 8.971 8.971h47.029c4.411 0 8-3.589 8-8v-70.111c0-12.938 3.059-25.895 8.845-37.467l14.311 7.156c-4.3 8.599-6.731 18.143-7.1 27.753 5.295.434 10.632.668 15.944.668h91.099c-2.403-6.855-5.663-13.425-9.755-19.563-11.347-17.019-17.344-36.828-17.344-57.282v-3.155h16v3.155c0 17.285 5.068 34.024 14.656 48.407 11.347 17.02 17.344 36.829 17.344 57.283v12.126c0 6.67-2.598 12.94-7.314 17.657l-6.059 6.059c-1.694 1.694-2.627 3.946-2.627 6.343 0 4.946 4.024 8.971 8.971 8.971h47.029c4.411 0 8-3.589 8-8v-70.111c0-12.938 3.059-25.895 8.845-37.467l14.311 7.156c-4.4 8.798-6.849 18.586-7.127 28.422h39.971c13.233 0 24 10.767 24 24s-10.767 24-24 24h-40v16h45.502c27.845-.001 50.498-22.654 50.498-50.499z" fill="url(#SVGID_1_)" style="fill: rgba(111, 90, 209);"></path></svg>